<svg xmlns="http://www.w3.org/2000/svg" xmlns:xlink="http://www.w3.org/1999/xlink" viewBox="0 0 2500 2500"><defs><style>.cls-1{fill:none;}.cls-2{isolation:isolate;}.cls-3{fill:url(#linear-gradient);}.cls-4{fill:url(#linear-gradient-2);}.cls-5{fill:url(#linear-gradient-3);}.cls-6{fill:url(#linear-gradient-4);}.cls-7{fill:#666;}.cls-10,.cls-15,.cls-17,.cls-8{mix-blend-mode:screen;}.cls-8{fill:url(#radial-gradient);}.cls-9{clip-path:url(#clip-path);}.cls-10{fill:url(#radial-gradient-2);}.cls-11{fill:url(#linear-gradient-5);}.cls-12{fill:url(#linear-gradient-6);}.cls-13{fill:url(#linear-gradient-7);}.cls-14{fill:url(#linear-gradient-8);}.cls-15{fill:url(#radial-gradient-3);}.cls-16{clip-path:url(#clip-path-2);}.cls-17{fill:url(#radial-gradient-4);}.cls-18{fill:#003893;}.cls-19{fill:#dc143c;}.cls-20{fill:#fff;}.cls-21{fill:url(#linear-gradient-9);}.cls-22{fill:url(#linear-gradient-10);}</style><linearGradient id="linear-gradient" x1="9431.64" y1="-1045.35" x2="9440.32" y2="-1045.35" gradientTransform="matrix(1, 0, 0, -1, -8728.45, -538.93)" gradientUnits="userSpaceOnUse"><stop offset="0" stop-color="#e6e6e6"/><stop offset="0.13" stop-color="#8d8d8d"/><stop offset="0.22" stop-color="#565656"/><stop offset="0.32" stop-color="#717171"/><stop offset="0.54" stop-color="#b7b7b7"/><stop offset="0.68" stop-color="#e6e6e6"/><stop offset="0.74" stop-color="#dbdbdb"/><stop offset="0.85" stop-color="#bdbdbd"/><stop offset="0.96" stop-color="#999"/></linearGradient><linearGradient id="linear-gradient-2" x1="-2691.83" y1="-1045.35" x2="-2677.73" y2="-1045.35" gradientTransform="translate(3394.59 1550.78)" gradientUnits="userSpaceOnUse"><stop offset="0" stop-color="#e6e6e6"/><stop offset="0.04" stop-color="#cecece"/><stop offset="0.2" stop-color="#7c7c7c"/><stop offset="0.27" stop-color="#5c5c5c"/><stop offset="0.36" stop-color="#565656"/><stop offset="0.49" stop-color="#a7a7a7"/><stop offset="0.58" stop-color="#dbdbdb"/><stop offset="0.68" stop-color="#e6e6e6"/><stop offset="0.74" stop-color="#dbdbdb"/><stop offset="0.85" stop-color="#bdbdbd"/><stop offset="0.96" stop-color="#999"/></linearGradient><linearGradient id="linear-gradient-3" x1="-2691.83" y1="-215723.7" x2="-2677.74" y2="-215723.7" gradientTransform="matrix(0.92, -0.4, 0.01, 0.02, 5220.33, 4149.75)" gradientUnits="userSpaceOnUse"><stop offset="0" stop-color="#cfcfcd"/><stop offset="0.04" stop-color="#b7b7b5"/><stop offset="0.2" stop-color="#656563"/><stop offset="0.27" stop-color="#454543"/><stop offset="0.36" stop-color="#3f3f3d"/><stop offset="0.49" stop-color="#90908e"/><stop offset="0.58" stop-color="#c4c4c2"/><stop offset="0.68" stop-color="#cfcfcd"/><stop offset="0.74" stop-color="#c4c4c2"/><stop offset="0.85" stop-color="#a6a6a4"/><stop offset="0.96" stop-color="#828280"/></linearGradient><linearGradient id="linear-gradient-4" x1="-2691.2" y1="-1347.37" x2="-2676.88" y2="-1342.47" gradientTransform="translate(3588.77 394.36) rotate(-23.48)" xlink:href="#linear-gradient-2"/><radialGradient id="radial-gradient" cx="6063.78" cy="6795.37" r="2.16" gradientTransform="matrix(-1.99, 0.84, -0.87, -2.05, 18561.57, 9026.74)" gradientUnits="userSpaceOnUse"><stop offset="0" stop-color="#fff"/><stop offset="0.09" stop-color="#fcfcfc"/><stop offset="0.16" stop-color="#f1f1f1"/><stop offset="0.23" stop-color="#dfdfe0"/><stop offset="0.3" stop-color="#c5c5c8"/><stop offset="0.37" stop-color="#a4a4a9"/><stop offset="0.43" stop-color="#7c7c83"/><stop offset="0.5" stop-color="#4d4d57"/><stop offset="0.55" stop-color="#20202c"/><stop offset="1" stop-color="#00000d"/></radialGradient><clipPath id="clip-path"><path class="cls-1" d="M578,223.61a8.51,8.51,0,1,0,4.42-11.2A8.51,8.51,0,0,0,578,223.61Z"/></clipPath><radialGradient id="radial-gradient-2" cx="6064.21" cy="6795.37" r="4.5" gradientTransform="matrix(-1.99, 0.84, -0.87, -2.05, 18561.57, 9026.74)" gradientUnits="userSpaceOnUse"><stop offset="0" stop-color="#fff"/><stop offset="0.25" stop-color="#b2b2b2"/><stop offset="0.52" stop-color="#666"/><stop offset="0.75" stop-color="#2f2f2f"/><stop offset="0.91" stop-color="#0d0d0d"/><stop offset="1"/></radialGradient><linearGradient id="linear-gradient-5" x1="7274.07" y1="-96.12" x2="7282.76" y2="-96.12" gradientTransform="translate(-6485.87 613.41)" xlink:href="#linear-gradient"/><linearGradient id="linear-gradient-6" x1="-534.27" y1="-96.12" x2="-520.17" y2="-96.12" gradientTransform="matrix(1, 0, 0, -1, 1317.53, 420.18)" xlink:href="#linear-gradient-2"/><linearGradient id="linear-gradient-7" x1="-534.27" y1="-178056.07" x2="-520.17" y2="-178056.07" gradientTransform="matrix(-0.92, -0.4, -0.01, 0.02, -1363.21, 4149.75)" xlink:href="#linear-gradient-3"/><linearGradient id="linear-gradient-8" x1="-533.63" y1="-398.15" x2="-519.31" y2="-393.24" gradientTransform="matrix(-0.92, -0.4, -0.4, 0.92, 268.35, 394.36)" xlink:href="#linear-gradient-2"/><radialGradient id="radial-gradient-3" cx="5061.03" cy="6377.75" r="2.16" gradientTransform="matrix(1.99, 0.84, 0.87, -2.05, -14704.45, 9026.74)" xlink:href="#radial-gradient"/><clipPath id="clip-path-2"><path class="cls-1" d="M922,234.48a8.51,8.51,0,1,1-4.42-11.2A8.51,8.51,0,0,1,922,234.48Z"/></clipPath><radialGradient id="radial-gradient-4" cx="5061.46" cy="6377.75" r="4.5" gradientTransform="matrix(1.99, 0.84, 0.87, -2.05, -14704.45, 9026.74)" xlink:href="#radial-gradient-2"/><linearGradient id="linear-gradient-9" x1="895.44" y1="520.07" x2="1116.44" y2="520.07" gradientTransform="translate(226.27 -430.32) rotate(23.1)" gradientUnits="userSpaceOnUse"><stop offset="0" stop-opacity="0.1"/><stop offset="0.08" stop-color="#202020" stop-opacity="0.11"/><stop offset="0.18" stop-color="#797979" stop-opacity="0.15"/><stop offset="0.3" stop-color="#fff" stop-opacity="0.2"/><stop offset="0.38" stop-color="#969696" stop-opacity="0.2"/><stop offset="0.47" stop-color="#424242" stop-opacity="0.2"/><stop offset="0.57" stop-color="#101010" stop-opacity="0.2"/><stop offset="0.7" stop-opacity="0.2"/><stop offset="0.84" stop-color="#fff" stop-opacity="0.05"/><stop offset="1" stop-opacity="0.2"/></linearGradient><linearGradient id="linear-gradient-10" x1="497.97" y1="682.94" x2="722.87" y2="682.94" gradientTransform="matrix(-0.93, 0.39, 0.4, 0.93, 850.38, -442.28)" xlink:href="#linear-gradient-9"/></defs><title>nepal</title><g class="cls-2"><g id="Layer_1" data-name="Layer 1"><rect class="cls-3" x="703.15" y="227.7" width="8.69" height="757.44" transform="translate(1558.18 688.97) rotate(156.52)"/><rect class="cls-4" x="702.7" y="210.46" width="14.1" height="789.96" rx="4.32" transform="translate(-142.62 324.68) rotate(-23.48)"/><path class="cls-5" d="M584.62,235.11a2.84,2.84,0,0,0,3.72,1.46l7.73-3.36a2.83,2.83,0,0,0,1.47-3.72Z"/><polygon class="cls-6" points="584.61 235.11 597.54 229.49 591.06 226.12 586.56 228.07 584.61 235.11"/><path class="cls-7" d="M578,223.61a8.51,8.51,0,1,0,4.42-11.2A8.51,8.51,0,0,0,578,223.61Z"/><path class="cls-8" d="M583.1,218.71a4.66,4.66,0,1,1,6.16,2.6A4.72,4.72,0,0,1,583.1,218.71Z"/><g class="cls-9"><path class="cls-10" d="M577.58,221.05a9.72,9.72,0,1,1,12.86,5.42A9.85,9.85,0,0,1,577.58,221.05Z"/></g><rect class="cls-11" x="788.17" y="238.57" width="8.69" height="757.44" transform="translate(271.76 -272.95) rotate(23.48)"/><rect class="cls-12" x="783.2" y="221.33" width="14.1" height="789.96" rx="4.32" transform="translate(1309.32 1304.75) rotate(-156.52)"/><path class="cls-13" d="M915.38,246a2.84,2.84,0,0,1-3.72,1.46l-7.73-3.36a2.83,2.83,0,0,1-1.47-3.72Z"/><polygon class="cls-14" points="915.39 245.98 902.46 240.36 908.94 236.99 913.44 238.94 915.39 245.98"/><path class="cls-7" d="M922,234.48a8.51,8.51,0,1,1-4.42-11.2A8.51,8.51,0,0,1,922,234.48Z"/><path class="cls-15" d="M916.9,229.58a4.66,4.66,0,1,0-6.16,2.6A4.72,4.72,0,0,0,916.9,229.58Z"/><g class="cls-16"><path class="cls-17" d="M922.42,231.92a9.72,9.72,0,1,0-12.86,5.42A9.85,9.85,0,0,0,922.42,231.92Z"/></g><path class="cls-18" d="M792.6,524.21C829.73,452,866.86,360.7,904,266.67c49.35,62.79,98.7,120.8,148,212.59-44.75-37-89.5-46.19-134.25-56.36,24.43,57.42,48.86,114.56,73.28,176.09C924.92,572.85,858.76,578.89,792.6,524.21Z"/><path id="_28" data-name="28" class="cls-19" d="M855.24,399.73c61,23.61,122,20.52,183.07,63.61C993.86,386,949.42,333.19,905,276.7c-35.3,89.44-70.6,176.56-105.9,247.26,61,46.87,122,44.66,183.07,66.28-34.55-85.6-69.1-163.56-103.65-247.11C870.75,362.32,863,381.24,855.24,399.73Z"/><path id="_27" data-name="27" class="cls-20" d="M883.2,357.25c-.83,24.07,17.62,41,41.19,36.66,11.86-2.12,23.35-9,31.73-19-8.74,21.69-32.14,36.13-52.28,31.45-20.14-4.84-29.38-27.54-20.64-49.15"/><path id="_26" data-name="26" class="cls-20" d="M919.66,366.23c9.37,2.12,13.67,12.24,9.6,22.58s-15,17-24.32,14.82-13.68-12.54-9.61-22.75S910.29,364.13,919.66,366.23Z"/><path id="_25" data-name="25" class="cls-20" d="M925.59,369.13q.67-4.32,1.33-8.64l-7.26,5.74"/><path id="_24" data-name="24" class="cls-20" d="M929.5,374.44l4.39-8.12-8.3,2.81"/><path id="_23" data-name="23" class="cls-20" d="M930.79,381.35q3.39-3.19,6.78-6.36c-2.69-.19-5.38-.38-8.07-.55"/><path id="_22" data-name="22" class="cls-20" d="M929.26,388.81c2.72-1.23,5.43-2.44,8.14-3.65l-6.61-3.81"/><path id="_21" data-name="21" class="cls-20" d="M925.16,395.68l8.25-.39q-2.07-3.24-4.15-6.48"/><path id="_20" data-name="20" class="cls-20" d="M919.09,400.92l7.12,2.93-1.05-8.17"/><path id="_19" data-name="19" class="cls-20" d="M912.61,366.17c1.7-2.59,3.41-5.17,5.12-7.77.64,2.61,1.29,5.22,1.93,7.83"/><path id="_18" data-name="18" class="cls-20" d="M905.51,368.94q1.1-4.31,2.2-8.61,2.44,2.93,4.9,5.84"/><path id="_17" data-name="17" class="cls-20" d="M899.44,374.1q-.53-4.1-1.06-8.2c2.38,1,4.75,2,7.13,3"/><path id="_16" data-name="16" class="cls-20" d="M895.33,380.88l-4.15-6.59c2.75,0,5.51-.11,8.26-.19"/><path id="_15" data-name="15" class="cls-20" d="M893.8,388.3c-2.2-1.33-4.4-2.66-6.61-4,2.71-1.11,5.43-2.24,8.14-3.4"/><path id="_1" data-name="1" class="cls-20" d="M868.06,441.34q-2.55,9-5.08,17.93c-5.16-2.63-10.32-5.42-15.48-8.43q2.1,8.81,4.22,17.57a176.72,176.72,0,0,1-18-.42q6.19,7,12.39,13.54c-5.22,3-10.43,5.81-15.64,8.33,5.74,2.22,11.49,4.12,17.23,5.75q-4.56,7.89-9.11,15.56c5.82-1.2,11.64-2.71,17.46-4.46l-.15,18.19q6.51-6.63,13-13.63,4.42,7.43,8.85,14.7,2.55-9.08,5.08-18.2c5.16,2.27,10.32,4.42,15.49,6.51q-2.11-8.43-4.22-16.88c6-1,12-2.21,18-3.4q-6.2-5.29-12.38-10.67c5.21-4,10.42-8.06,15.63-12.14-5.74-.5-11.49-1-17.23-1.64q4.56-8.7,9.11-17.47c-5.82,2.61-11.64,5.17-17.46,7.6l.15-18.2q-6.51,7.41-13,14.59Q872.49,448.77,868.06,441.34Z"/><path class="cls-21" d="M792.6,524.21C829.73,452,866.86,360.7,904,266.67c49.35,62.79,98.7,120.8,148,212.59-44.75-37-89.5-46.19-134.25-56.36,24.43,57.42,48.86,114.56,73.28,176.09C924.92,572.85,858.76,578.89,792.6,524.21Z"/><path class="cls-18" d="M710.23,522.23c-37.49-103.3-75-187.23-112.46-268.44C548,336,498.22,423,448.45,475.8c45.14-1.08,90.29-30.24,135.44-58.43-24.63,67.91-49.27,136.11-73.9,199.89C576.73,586.8,643.48,523.81,710.23,522.23Z"/><path id="_28-2" data-name="28" class="cls-19" d="M647,376.06c-61.56,28.6-123.13,84.2-184.69,93.08,44.82-53,89.65-130.75,134.48-204.82C632.42,341.48,668.06,421,703.69,517.09c-61.56,5.07-123.13,59.77-184.7,90.39,34.84-91.62,69.68-191,104.52-284.63C631.34,340.25,639.17,357.94,647,376.06Z"/><path id="_27-2" data-name="27" class="cls-20" d="M618.78,338.46c.83,24-17.77,46.77-41.55,52.2-12,2.65-23.57,0-32-7.39,8.82,19.55,32.44,24.53,52.76,12,20.32-12.42,29.64-37.13,20.82-56.76"/><path id="_26-2" data-name="26" class="cls-20" d="M582,360.74c-9.45,5.91-13.79,17.85-9.69,26.71s15.1,11.19,24.55,5.37,13.79-17.56,9.69-26.54S591.44,354.81,582,360.74Z"/><path id="_25-2" data-name="25" class="cls-20" d="M576,366.05c-.44-2.74-.89-5.47-1.34-8.21l7.33,2.9"/><path id="_24-2" data-name="24" class="cls-20" d="M572.06,373l-4.43-6.49,8.37-.45"/><path id="_23-2" data-name="23" class="cls-20" d="M570.76,380.5l-6.84-3.79c2.71-1.23,5.43-2.47,8.14-3.72"/><path id="_22-2" data-name="22" class="cls-20" d="M572.3,387.45l-8.21-.5,6.67-6.45"/><path id="_21-2" data-name="21" class="cls-20" d="M576.45,392.76l-8.33,2.89,4.18-8.2"/><path id="_20-2" data-name="20" class="cls-20" d="M582.57,395.64l-7.18,5.82c.35-2.9.71-5.8,1.06-8.7"/><path id="_19-2" data-name="19" class="cls-20" d="M589.11,357.87c-1.73-1.94-3.45-3.89-5.17-5.83l-2,8.7"/><path id="_18-2" data-name="18" class="cls-20" d="M596.27,357.92,594.05,350q-2.47,3.91-4.94,7.83"/><path id="_17-2" data-name="17" class="cls-20" d="M602.39,360.88c.36-2.89.71-5.79,1.07-8.68q-3.6,2.83-7.19,5.72"/><path id="_16-2" data-name="16" class="cls-20" d="M606.54,366.28l4.19-8.08q-4.17,1.31-8.34,2.68"/><path id="_15-2" data-name="15" class="cls-20" d="M608.08,373.27q3.33-3.15,6.67-6.24-4.1-.4-8.21-.75"/><path id="_1-2" data-name="1" class="cls-20" d="M634.07,419.93q2.56,8.63,5.13,17.3c5.21-3.42,10.41-6.67,15.62-9.7q-2.13,8.91-4.25,17.87a179.85,179.85,0,0,1,18.12.62q-6.24,6.08-12.49,12.61c5.26,3.14,10.52,6.5,15.78,10.14-5.8,1.06-11.59,2.44-17.39,4.09q4.6,8,9.2,16.23c-5.87-1.83-11.75-3.35-17.62-4.63q.08,9.21.16,18.41c-4.38-4.12-8.76-8.09-13.14-12q-4.46,8.38-8.92,16.9-2.57-8.54-5.13-17c-5.21,3.78-10.42,7.68-15.62,11.65q2.13-9.3,4.25-18.58c-6,1-12.08,2.11-18.13,3.25q6.25-7.8,12.5-15.51c-5.26-2.15-10.52-4.23-15.78-6.29q8.7-4.2,17.39-8.25-4.61-7.17-9.2-14.29c5.87.4,11.74.86,17.62,1.44q-.07-9.18-.16-18.38,6.57,5.39,13.13,11Q629.61,428.29,634.07,419.93Z"/><path class="cls-22" d="M710.23,522.23c-37.49-103.3-75-187.23-112.46-268.44C548,336,498.22,423,448.45,475.8c45.14-1.08,90.29-30.24,135.44-58.43-24.63,67.91-49.27,136.11-73.9,199.89C576.73,586.8,643.48,523.81,710.23,522.23Z"/></g></g></svg>